<svg viewBox="0 0 64 64" xmlns="http://www.w3.org/2000/svg"><g fill-rule="evenodd" fill="none"><path d="M0 0h64v64H0z"/><path d="m40 5 14 14v36a4 4 0 0 1-4 4H14a4 4 0 0 1-4-4V9a4 4 0 0 1 4-4h26ZM30 17c-5.571 0-10 4.429-10 10s4.429 10 10 10a10 10 0 0 0 5.935-1.921l4.917 4.915a1.486 1.486 0 0 0 2.111-.01 1.515 1.515 0 0 0-.01-2.132L38.06 32.96A10 10 0 0 0 40 27c0-5.571-4.429-10-10-10Zm.057 3.057c3.92 0 7 3.08 7 7s-3.08 7-7 7-7-3.08-7-7 3.08-7 7-7ZM19.5 44h25a1.5 1.5 0 0 1 0 3h-25a1.5 1.5 0 0 1 0-3Z" fill="#B2B7C2"/><path fill-rule="nonzero" fill="#959BA6" d="M44 19h10v10z"/><path d="m40 5 14 14H44a4 4 0 0 1-4-4V5Z" fill="#CCD0D9"/></g></svg>