<svg viewBox="0 0 64 64" xmlns="http://www.w3.org/2000/svg"><g fill-rule="evenodd" fill="none"><path d="M0 0h64v64H0z"/><path d="M14 8h26l14 14v13H10V12a4 4 0 0 1 4-4Z" fill="#B2B7C2"/><path d="M10 39h7.364c1.604 0 2.805.399 3.604 1.197.798.798 1.198 1.934 1.198 3.407 0 1.515-.435 2.698-1.306 3.55-.87.854-2.199 1.28-3.985 1.28H14.45V54H10V39Zm4.45 6.395h1.085c.854 0 1.454-.155 1.8-.466.345-.31.518-.707.518-1.192 0-.47-.15-.87-.45-1.197-.3-.327-.864-.49-1.692-.49H14.45v3.345ZM25.898 39h6.582c1.298 0 2.346.184 3.144.553a5.146 5.146 0 0 1 1.98 1.585c.522.69.9 1.49 1.135 2.405.235.914.352 1.883.352 2.906 0 1.603-.174 2.846-.523 3.73-.349.883-.833 1.623-1.452 2.22-.62.597-1.285.994-1.995 1.192-.972.273-1.852.409-2.64.409h-6.583V39Zm4.43 3.397v8.196h1.086c.926 0 1.584-.108 1.976-.323.39-.214.697-.59.919-1.125.222-.536.332-1.404.332-2.604 0-1.59-.247-2.677-.743-3.264-.495-.587-1.317-.88-2.464-.88h-1.105ZM43.048 39H54v3.223h-6.503V45h6.554v3h-6.554v6h-4.45V39ZM44 22h10v10z" fill-rule="nonzero" fill="#959BA6"/><path d="m40 8 14 14H44a4 4 0 0 1-4-4V8Z" fill="#CCD0D9"/></g></svg>