<svg viewBox="0 0 64 64" xmlns="http://www.w3.org/2000/svg"><g fill-rule="evenodd" fill="none"><path d="M0 0h64v64H0z"/><path d="M12.74 10h16.826a4.61 4.61 0 0 1 4.141 2.607l.692 1.423c1.2 2.468 3.549 3.622 6.268 3.622h10.592c1.53 0 2.89 1.324 2.89 2.87V48.26H9.851V12.87c0-1.547 1.36-2.87 2.889-2.87Z" fill="#959BA6"/><path d="m15.021 19.567 33.77-.002c.858 0 1.17.089 1.483.256.314.166.56.411.728.723.168.312.257.62.257 1.474v14.225c0 .853-.09 1.162-.257 1.474a1.744 1.744 0 0 1-.728.723c-.314.167-.625.256-1.484.256H15.21c-.859 0-1.17-.09-1.484-.256a1.744 1.744 0 0 1-.728-.723c-.155-.288-.243-.573-.256-1.286l-.001-14.413c0-.853.09-1.162.257-1.474.168-.312.414-.557.728-.723.29-.154.577-.242 1.295-.254Z" fill="#FFF"/><path d="M8.745 23.391h46.51c1.516 0 2.745 1.21 2.745 2.701 0 .157-.014.314-.042.47l-4.386 24.463C53.263 52.745 51.744 54 49.969 54H14.032c-1.776 0-3.295-1.254-3.603-2.975L6.042 26.56c-.263-1.468.733-2.87 2.226-3.129.157-.027.317-.04.477-.04Z" fill="#B2B7C2"/></g></svg>