<svg viewBox="0 0 64 64"
  xmlns="http://www.w3.org/2000/svg">
  <g fill-rule="evenodd" fill="none">
    <path d="M0 0h64v64H0z"/>
    <path d="M55.029 41c.967 0 1.772.675 1.94 1.566l.031.343V50c0 3.673-2.92 6.685-6.636 6.977l-.593.023H14.23c-3.793 0-6.903-2.828-7.205-6.426L7 50v-7.09C7 41.854 7.883 41 8.971 41c.968 0 1.773.675 1.94 1.566l.032.343V50c0 1.622 1.253 2.96 2.873 3.157l.413.025H49.77c1.675 0 3.058-1.214 3.26-2.783l.026-.399v-7.09c0-1.055.883-1.91 1.972-1.91ZM32 7h.046l.08.004L32 7a2.023 2.023 0 0 1 .306.022 2.071 2.071 0 0 1 1.17.586l13.913 13.846.241.288a2.07 2.07 0 0 1-.241 2.65l-.29.24c-.813.56-1.937.48-2.662-.24L34 14.006V41a2 2 0 0 1-3.968.36L30 41V14.006L19.563 24.392l-.29.24c-.813.56-1.937.48-2.662-.24a2.07 2.07 0 0 1 0-2.938L30.524 7.608l.29-.24c.265-.183.564-.298.871-.344l.032-.004a1.358 1.358 0 0 1 .171-.017L31.964 7H32Z" fill="#fff" data-follow-fill="#fff"/>
  </g>
</svg>