<?xml version="1.0" encoding="UTF-8"?>
<svg width="20px" height="20px" viewBox="0 0 20 20" version="1.1"
  xmlns="http://www.w3.org/2000/svg"
  xmlns:xlink="http://www.w3.org/1999/xlink">
  <title>3-Color/FileFolderFilled</title>
  <g id="个人中心" stroke="none" stroke-width="1" fill="none" fill-rule="evenodd">
    <g id="个人中心/知识库" transform="translate(-280, -316)">
      <g id="编组-3" transform="translate(240, 60)">
        <g id="编组-14" transform="translate(20, 236)">
          <g id="FileZipFilled" transform="translate(20, 20)">
            <rect id="mask" x="0" y="0" width="20" height="20"></rect>
            <g transform="translate(1.875, 3.125)" id="矩形">
              <path d="M2.10648148,0 L7.36453017,0 C7.91411598,0 8.41591248,0.315918779 8.65845399,0.814622739 L8.87481766,1.25950088 C9.24981487,2.03055483 9.98361017,2.39130435 10.8333333,2.39130435 L14.1435185,2.39130435 C14.6213343,2.39130435 15.0462963,2.80486753 15.0462963,3.28804348 L15.0462963,11.9565217 L1.2037037,11.9565217 L1.2037037,0.89673913 C1.2037037,0.413563183 1.62866568,0 2.10648148,0 Z" fill="#BD8D1C"></path>
              <path d="M2.81906722,2.98962144 L13.371979,2.98913043 C13.6402601,2.98913043 13.7375453,3.01687722 13.8356249,3.06897988 C13.9337044,3.12108255 14.0106778,3.19754109 14.0631314,3.2949646 C14.1155849,3.39238811 14.1435185,3.48902258 14.1435185,3.75550916 L14.1435185,8.20101258 C14.1435185,8.46749916 14.1155849,8.56413363 14.0631314,8.66155714 C14.0106778,8.75898065 13.9337044,8.83543919 13.8356249,8.88754185 C13.7375453,8.93964452 13.6402601,8.9673913 13.371979,8.9673913 L2.87802101,8.9673913 C2.60973991,8.9673913 2.5124547,8.93964452 2.41437514,8.88754185 C2.31629557,8.83543919 2.23932216,8.75898065 2.18686864,8.66155714 C2.13845,8.57162775 2.11092405,8.48237067 2.10697579,8.25957202 L2.10648148,3.75550916 C2.10648148,3.48902258 2.13441511,3.39238811 2.18686864,3.2949646 C2.23932216,3.19754109 2.31629557,3.12108255 2.41437514,3.06897988 C2.50491011,3.02088512 2.59476825,2.99354329 2.81906722,2.98962144 Z" fill="#FFFFFF"></path>
              <path d="M0.857678857,4.18478261 L15.3924647,4.18478261 C15.8660684,4.18478261 16.25,4.5626497 16.25,5.02877238 C16.25,5.07794415 16.2456338,5.12702187 16.2369514,5.17544542 L14.8662172,12.8202444 C14.7697984,13.3579867 14.2950501,13.75 13.7402349,13.75 L2.50990861,13.75 C1.95509346,13.75 1.48034508,13.3579867 1.38392634,12.8202444 L0.0131921559,5.17544542 C-0.0691132194,4.71641547 0.242254666,4.27863041 0.708651792,4.19762513 C0.75785252,4.1890798 0.807717902,4.18478261 0.857678857,4.18478261 Z" fill="#EBB942"></path>
            </g>
          </g>
        </g>
      </g>
    </g>
  </g>
</svg>