<svg width="20px" height="20px" viewBox="0 0 64 64" xmlns="http://www.w3.org/2000/svg"><g fill-rule="evenodd" fill="none"><path d="M0 0h64v64H0z"/><path d="M39 7a4 4 0 0 1 4 4v6h9a2 2 0 1 1 0 4h-.397l-2.935 29.618A7 7 0 0 1 41.695 57h-19.39a7 7 0 0 1-6.973-6.382L12.396 21H12a2 2 0 1 1 0-4h9v-6a4 4 0 0 1 4-4h14Zm8.629 14H16.37l2.946 29.265a3 3 0 0 0 2.81 2.73l.179.005h19.39a3 3 0 0 0 2.968-2.558l.02-.177L47.63 21ZM26 26a2 2 0 0 1 2 2v16a2 2 0 1 1-4 0V28a2 2 0 0 1 2-2Zm12 0a2 2 0 0 1 2 2v16a2 2 0 1 1-4 0V28a2 2 0 0 1 2-2Zm1-15H25v6h14v-6Z" fill="#D94141" data-follow-fill="#D94141"/></g></svg>