<svg  width="20px" height="20px" viewBox="0 0 64 64" xmlns="http://www.w3.org/2000/svg"><g fill-rule="evenodd" fill="none"><path d="M0 0h64v64H0z"/><path d="M23.077 16a2 2 0 0 1 .15 3.995l-.15.005H15.23a3.23 3.23 0 0 0-3.226 3.047l-.005.184v23.538a3.23 3.23 0 0 0 3.047 3.226l.184.005h23.538a3.23 3.23 0 0 0 3.226-3.047l.005-.184v-7.846a2 2 0 0 1 3.995-.15l.005.15v7.846a7.23 7.23 0 0 1-6.987 7.227l-.244.004H15.231a7.23 7.23 0 0 1-7.227-6.987L8 46.769V23.231a7.23 7.23 0 0 1 6.987-7.227l.244-.004h7.846Zm32.697-7.774a7.6 7.6 0 0 1 .19 10.552l-.19.196-22.44 22.44a2 2 0 0 1-1.238.578L31.92 42H24a2 2 0 0 1-1.995-1.85L22 40v-7.92a2 2 0 0 1 .467-1.284l.119-.13 18.373-18.374a2.005 2.005 0 0 1 .666-.667l3.4-3.399a7.6 7.6 0 0 1 10.749 0Zm-13.068 7.975L25.999 32.909V38h5.091l16.708-16.707-5.092-5.092Zm5.302-5.292-.154.145-2.32 2.319 5.092 5.092 2.32-2.319a3.6 3.6 0 0 0 .145-4.938l-.145-.154a3.6 3.6 0 0 0-4.938-.145Z" fill="#959BA6" data-follow-fill="#959BA6"/></g></svg>