<?xml version="1.0" encoding="UTF-8"?>
<svg width="20px" height="20px" viewBox="0 0 20 20" version="1.1" xmlns="http://www.w3.org/2000/svg" xmlns:xlink="http://www.w3.org/1999/xlink">
    <title>5-Info/QuestionCircleOutlined</title>
    <g id="个人中心" stroke="none" stroke-width="1" fill="none" fill-rule="evenodd">
        <g id="个人中心/知识库-列表展示" transform="translate(-1380, -380)">
            <g id="编组-3" transform="translate(240, 60)">
                <g id="编组-7" transform="translate(20, 304)">
                    <g id="AppstoreOutlined" transform="translate(1120, 16)">
                        <rect id="mask" x="0" y="0" width="20" height="20"></rect>
                        <path d="M7.8125,2.1875 C8.50285594,2.1875 9.0625,2.74714406 9.0625,3.4375 L9.0625,7.8125 C9.0625,8.50285594 8.50285594,9.0625 7.8125,9.0625 L3.4375,9.0625 C2.74714406,9.0625 2.1875,8.50285594 2.1875,7.8125 L2.1875,3.4375 C2.1875,2.74714406 2.74714406,2.1875 3.4375,2.1875 L7.8125,2.1875 Z M7.8125,3.4375 L3.4375,3.4375 L3.4375,7.8125 L7.8125,7.8125 L7.8125,3.4375 Z M7.8125,10.9375 C8.50285594,10.9375 9.0625,11.4971441 9.0625,12.1875 L9.0625,16.5625 C9.0625,17.2528559 8.50285594,17.8125 7.8125,17.8125 L3.4375,17.8125 C2.74714406,17.8125 2.1875,17.2528559 2.1875,16.5625 L2.1875,12.1875 C2.1875,11.4971441 2.74714406,10.9375 3.4375,10.9375 L7.8125,10.9375 Z M7.8125,12.1875 L3.4375,12.1875 L3.4375,16.5625 L7.8125,16.5625 L7.8125,12.1875 Z M16.5625,10.9375 C17.2528559,10.9375 17.8125,11.4971441 17.8125,12.1875 L17.8125,16.5625 C17.8125,17.2528559 17.2528559,17.8125 16.5625,17.8125 L12.1875,17.8125 C11.4971441,17.8125 10.9375,17.2528559 10.9375,16.5625 L10.9375,12.1875 C10.9375,11.4971441 11.4971441,10.9375 12.1875,10.9375 L16.5625,10.9375 Z M16.5625,12.1875 L12.1875,12.1875 L12.1875,16.5625 L16.5625,16.5625 L16.5625,12.1875 Z M16.5625,2.1875 C17.2528559,2.1875 17.8125,2.74714406 17.8125,3.4375 L17.8125,7.8125 C17.8125,8.50285594 17.2528559,9.0625 16.5625,9.0625 L12.1875,9.0625 C11.4971441,9.0625 10.9375,8.50285594 10.9375,7.8125 L10.9375,3.4375 C10.9375,2.74714406 11.4971441,2.1875 12.1875,2.1875 L16.5625,2.1875 Z M16.5625,3.4375 L12.1875,3.4375 L12.1875,7.8125 L16.5625,7.8125 L16.5625,3.4375 Z" fill="#000000"></path>
                    </g>
                </g>
            </g>
        </g>
    </g>
</svg>