<svg width="26px" height="26px" viewBox="0 0 64 64" xmlns="http://www.w3.org/2000/svg"><g fill-rule="evenodd" fill="none"><path d="M0 0h64v64H0z"/><path d="M14 4h26l14 14v38a4 4 0 0 1-4 4H14a4 4 0 0 1-4-4V8a4 4 0 0 1 4-4Z" fill="#ED7B2B"/><path opacity=".573" d="M18.511 33.803a1.5 1.5 0 0 0-.101.2l-3.625 8.673a1.5 1.5 0 0 0 1.387 2.078l31.623-.06c1.695-.004 2.084-2.377.478-2.921l-26.492-8.974c-1.424-.471-2.538-.201-3.27 1.004Z" fill-rule="nonzero" fill="#FFF"/><path d="m34.71 26.454-.1.137-10.205 15.851c-.643 1 .077 2.315 1.266 2.312l22.125-.06c1.187-.004 1.9-1.32 1.255-2.316L38.859 26.656a2.707 2.707 0 0 0-.45-.514 2.572 2.572 0 0 0-3.7.312ZM22 20a4 4 0 1 0 0 8 4 4 0 0 0 0-8Z" fill="#FFF"/><path opacity=".12" fill-rule="nonzero" fill="#000" d="M44 18h10v10z"/><path d="m40 4 14 14H44a4 4 0 0 1-4-4V4Z" fill="#FAA264"/></g></svg>