<svg width="20px" height="20px" viewBox="0 0 64 64" xmlns="http://www.w3.org/2000/svg"><g fill-rule="evenodd" fill="none"><path d="M64 0v64H0V0z"/><path d="M29 55.029c0 .967-.675 1.772-1.566 1.94l-.343.031H14c-3.673 0-6.685-2.92-6.977-6.636L7 49.771V14.23c0-3.793 2.828-6.903 6.426-7.205L14 7h13.09C28.146 7 29 7.883 29 8.971c0 .968-.675 1.773-1.566 1.94l-.343.032H14c-1.622 0-2.96 1.253-3.157 2.873l-.025.413V49.77c0 1.675 1.214 3.058 2.783 3.26l.399.026h13.09c1.055 0 1.91.883 1.91 1.972ZM57 32v.046l-.004.08L57 32a2.023 2.023 0 0 1-.022.306 2.071 2.071 0 0 1-.586 1.17L42.546 47.389l-.288.241a2.07 2.07 0 0 1-2.65-.241l-.24-.29a2.095 2.095 0 0 1 .24-2.662L49.994 34H25a2 2 0 0 1-.36-3.968L25 30h24.994L39.608 19.563l-.24-.29a2.095 2.095 0 0 1 .24-2.662 2.07 2.07 0 0 1 2.938 0l13.846 13.913.24.29c.183.265.298.564.344.871l.004.032a1.358 1.358 0 0 1 .017.171l.003.076V32Z" fill="#959BA6" data-follow-fill="#959BA6"/></g></svg>