<svg width="20px" height="20px" viewBox="0 0 64 64" xmlns="http://www.w3.org/2000/svg"><g fill-rule="evenodd" fill="none"><path d="M0 0h64v64H0z"/><path d="M32 10c14.36 0 25 9.297 25 22S46.36 54 32 54l-1.115-.003c-3.14-.02-6.138-.168-8.894-1.186l-.357-.137-.638-.263-.493-.214-.843-.378a.982.982 0 0 0-.636-.064l-8.856 2.079a2 2 0 0 1-2.4-1.517c-.07-.31-.068-.631.006-.94l2.038-8.42c.06-.244.026-.502-.092-.724l-.451-.858-.25-.495-.206-.434-.115-.255A20.614 20.614 0 0 1 7 32c0-12.703 10.64-22 25-22Zm0 4c-12.284 0-21 7.654-21 18 0 2.251.453 4.444 1.33 6.513l.092.209.172.362.35.689.308.583c.537 1.01.713 2.17.503 3.286l-.056.256-1.282 5.298 5.693-1.335a4.98 4.98 0 0 1 2.96.212l.252.107.771.347.429.186.546.227.308.119c1.18.436 2.462.689 4.171.82l.662.044.705.033.754.023.805.014.423.004L32 50c12.284 0 21-7.654 21-18s-8.716-18-21-18Zm0 15a3 3 0 1 1 0 6 3 3 0 0 1 0-6Zm-11 0a3 3 0 1 1 0 6 3 3 0 0 1 0-6Zm22 0a3 3 0 1 1 0 6 3 3 0 0 1 0-6Z" fill="#959BA6" data-follow-fill="#959BA6"/></g></svg>