<?xml version="1.0" encoding="UTF-8"?>
<svg width="20px" height="20px" viewBox="0 0 20 20" version="1.1" xmlns="http://www.w3.org/2000/svg" xmlns:xlink="http://www.w3.org/1999/xlink">
    <title>5-Info/QuestionCircleOutlined</title>
    <g id="个人中心" stroke="none" stroke-width="1" fill="none" fill-rule="evenodd">
        <g id="个人中心/知识库-排序类型" transform="translate(-1380, -380)">
            <g id="编组-3" transform="translate(240, 60)">
                <g id="编组-7" transform="translate(20, 304)">
                    <g id="MenuOutlined" transform="translate(1120, 16)">
                        <rect id="mask" x="0" y="0" width="20" height="20"></rect>
                        <path d="M3.75,3.75 L16.25,3.75 C16.595178,3.75 16.875,4.02982203 16.875,4.375 C16.875,4.72017797 16.595178,5 16.25,5 L3.75,5 C3.40482203,5 3.125,4.72017797 3.125,4.375 C3.125,4.02982203 3.40482203,3.75 3.75,3.75 Z M3.75,9.375 L16.25,9.375 C16.595178,9.375 16.875,9.65482203 16.875,10 C16.875,10.345178 16.595178,10.625 16.25,10.625 L3.75,10.625 C3.40482203,10.625 3.125,10.345178 3.125,10 C3.125,9.65482203 3.40482203,9.375 3.75,9.375 Z M3.75,15 L16.25,15 C16.595178,15 16.875,15.279822 16.875,15.625 C16.875,15.970178 16.595178,16.25 16.25,16.25 L3.75,16.25 C3.40482203,16.25 3.125,15.970178 3.125,15.625 C3.125,15.279822 3.40482203,15 3.75,15 Z" fill="#000000"></path>
                    </g>
                </g>
            </g>
        </g>
    </g>
</svg>