<?xml version="1.0" encoding="UTF-8"?>
<svg width="64px" height="64px" viewBox="0 0 64 64" version="1.1"
  xmlns="http://www.w3.org/2000/svg"
  xmlns:xlink="http://www.w3.org/1999/xlink">
  <title></title>
  <g id="页面-1" stroke="none" stroke-width="1" fill="none" fill-rule="evenodd">
    <g id="FileTxtFilled">
      <rect id="mask" x="0" y="0" width="64" height="64"></rect>
      <g id="编组" transform="translate(10.000000, 4.000000)" fill-rule="nonzero">
        <path d="M4,0 L30,0 L44,14 L44,52 C44,54.209139 42.209139,56 40,56 L4,56 C1.790861,56 0,54.209139 0,52 L0,4 C0,1.790861 1.790861,0 4,0 Z" id="矩形" fill="#0A91F2"></path>
        <polygon id="矩形" fill="#000000" opacity="0.119999997" points="34 14 44 14 44 24"></polygon>
        <path d="M30,0 L44,14 L34,14 C31.790861,14 30,12.209139 30,10 L30,0 L30,0 Z" id="矩形" fill="#4DB4FF"></path>
        <path d="M23.0523398,29.4393398 L31.5018272,37.8893298 C32.0851773,38.4726798 32.0851773,39.4184772 31.5018272,40.0018272 C30.9184772,40.5851773 29.9726798,40.5851773 29.3893298,40.0018272 L20.9393398,31.5523398 L18.8263398,29.4393398 L12.4981728,23.1106702 C11.9148227,22.5273202 11.9148227,21.5815228 12.4981728,20.9981728 C13.0815228,20.4148227 14.0273202,20.4148227 14.6106702,20.9981728 L20.9393398,27.3263398 L23.0523398,29.4393398 Z" id="路径" fill="#FFFFFF" transform="translate(22.000000, 30.500000) rotate(45.000000) translate(-22.000000, -30.500000) "></path>
        <path d="M24.113,18 L32.5624874,26.44999 C33.1458375,27.03334 33.1458375,27.9791374 32.5624874,28.5624874 C31.9791374,29.1458375 31.03334,29.1458375 30.44999,28.5624874 L22,20.113 L19.887,18 L11.4375126,9.55001 C10.8541625,8.96666 10.8541625,8.0208626 11.4375126,7.4375126 C12.0208626,6.8541625 12.96666,6.8541625 13.55001,7.4375126 L22,15.887 L24.113,18 Z" id="路径" fill="#FFFFFF" transform="translate(22.000000, 18.000000) rotate(-45.000000) translate(-22.000000, -18.000000) "></path>
      </g>
    </g>
  </g>
</svg>