<?xml version="1.0" encoding="UTF-8"?>
<svg width="64px" height="64px" viewBox="0 0 64 64" version="1.1"
  xmlns="http://www.w3.org/2000/svg"
  xmlns:xlink="http://www.w3.org/1999/xlink">
  <title></title>
  <g id="Symbol" stroke="none" stroke-width="1" fill="none" fill-rule="evenodd">
    <g id="FilePdfFilled">
      <rect id="mask" x="0" y="0" width="64" height="64"></rect>
      <g transform="translate(10.000000, 4.000000)">
        <path d="M4,0 L30,0 L44,14 L44,52 C44,54.209139 42.209139,56 40,56 L4,56 C1.790861,56 0,54.209139 0,52 L0,4 C0,1.790861 1.790861,0 4,0 Z" id="矩形" fill="#D94141"></path>
        <polygon id="矩形" fill="#000000" fill-rule="nonzero" opacity="0.119999997" points="34 14 44 14 44 24"></polygon>
        <path d="M30,0 L44,14 L34,14 C31.790861,14 30,12.209139 30,10 L30,0 Z" id="矩形" fill="#F78181"></path>
        <path d="M24.3748603,17.1817198 C24.3304142,18.0660334 24.1805912,19.0272593 23.9548007,20.035484 C23.8340542,20.5746546 23.7109587,21.0485578 23.5782177,21.5126958 L23.1483245,22.9797823 C22.9922865,23.4910877 22.8213755,24.0185038 22.6279826,24.5770386 C23.7254897,26.4900262 25.3362047,28.6427334 27.2549206,30.8349734 L27.5975563,31.2212977 L27.324484,30.9111867 C28.9966512,30.8269708 30.603256,30.8537396 32.1203967,30.9983593 L32.7650528,31.0675745 L32.8529471,31.0807441 C34.4923793,31.3762899 35.9809337,31.9146614 37.0049289,32.7013338 C38.5732546,33.9061818 38.9975418,35.6957779 37.858032,37.4904919 C35.699171,40.8906716 32.0287782,40.0277541 28.1827712,36.2055563 C27.5894515,35.6159096 26.9852803,34.991948 26.3853565,34.3476889 L26.0695563,34.0042977 L25.3014759,34.0799082 C22.7225671,34.3564521 20.0587632,34.8884074 17.5399013,35.6115832 L17.1432962,35.7305788 C15.774071,37.8189981 14.2434365,39.8073097 12.5406913,41.6705359 L11.9667204,42.2869442 L11.8621613,42.3870046 C10.5112616,43.5603078 8.506098,43.8385479 7.06385305,43.0692856 C5.22044154,42.0860496 4.99477879,39.9388535 6.47604936,37.9198287 C7.63165071,36.3447028 10.7138449,34.6888783 14.7293571,33.3439097 L15.2095489,33.1861549 C16.9089046,30.4605339 18.2420481,27.710071 19.2700255,25.0289702 L19.5035563,24.4052977 L19.3498105,24.8111315 C19.1484352,24.4023121 18.9702061,24.0043193 18.8150121,23.6154289 C17.768138,20.9921374 17.1808444,18.991448 17.0927489,17.2889418 C16.9594197,14.7122633 18.1079798,12.8730531 20.6132551,12.5370498 C23.4155261,12.1612139 24.5222714,14.248779 24.3748603,17.1817198 Z M12.057,37.626 L12.0199954,37.6440823 C10.4340679,38.3936968 9.30979289,39.1289026 8.89489156,39.6944279 L8.55492784,40.1707792 L8.48921464,40.2745309 L8.45452461,40.3424093 C8.44038602,40.3777366 8.4428707,40.3952465 8.45386092,40.4071351 L8.47571071,40.4222763 C8.76470504,40.5764197 9.34221799,40.5139415 9.77116475,40.2178766 L9.855,40.152 L10.3531416,39.6171592 C10.7239751,39.2105997 11.0861597,38.797561 11.4397689,38.3784095 L11.9637604,37.7451435 L12.057,37.626 Z M30.099,33.877 L30.2974949,34.0776597 C32.9866566,36.7501738 34.5422565,37.1158988 35.3253992,35.8824586 C35.5894855,35.4665259 35.5693363,35.3815389 35.1772802,35.0803463 C34.6469319,34.6729124 33.6929239,34.3112862 32.5973785,34.0864578 L32.362,34.041 L31.8564019,33.9868044 C31.4846812,33.9510564 31.1058803,33.9231551 30.7205745,33.9030099 L30.099,33.877 Z M21.324,28.127 L21.2359693,28.3672611 L21.1834036,28.2671501 C20.8226898,29.09183 20.4341984,29.9201499 20.0162168,30.7501667 L19.5883417,31.5806771 L19.435,31.864 L19.6413993,31.8009835 L19.506,32.013 L19.6374308,31.9833097 C20.5860102,31.7718451 21.5427018,31.5872913 22.4982778,31.4323223 L23.4531402,31.287314 L23.593,31.268 L23.4917072,31.1556321 L23.594,31.148 L23.3959357,30.9044998 C22.7831523,30.1422685 22.2106272,29.3876515 21.6852624,28.6464564 L21.324,28.127 Z M21.1912963,15.4818007 L21.1613422,15.4844051 L21.0810522,15.5000216 L21.0120394,15.5104268 C20.2542797,15.6120563 20.0286854,15.9733046 20.0887407,17.1339154 C20.1273851,17.8807449 20.3178818,18.7866249 20.6543507,19.8743283 L20.796,20.317 L20.8570886,20.0923835 C21.0547372,19.3359413 21.2115413,18.5874811 21.302572,17.8721005 L21.3490982,17.4470425 L21.3786423,17.0311283 C21.4115882,16.3756262 21.3570138,15.8763098 21.2495303,15.6014732 L21.1973892,15.4876604 Z" id="形状结合" fill="#FFFFFF"></path>
      </g>
    </g>
  </g>
</svg>