<?xml version="1.0" encoding="UTF-8"?>
<svg width="64px" height="64px" viewBox="0 0 64 64" version="1.1"
  xmlns="http://www.w3.org/2000/svg"
  xmlns:xlink="http://www.w3.org/1999/xlink">
  <title></title>
  <g id="Symbol" stroke="none" stroke-width="1" fill="none" fill-rule="evenodd">
    <g id="FileWordFilled">
      <rect id="mask" x="0" y="0" width="64" height="64"></rect>
      <g transform="translate(10.000000, 4.000000)">
        <path d="M4,0 L30,0 L44,14 L44,52 C44,54.209139 42.209139,56 40,56 L4,56 C1.790861,56 0,54.209139 0,52 L0,4 C0,1.790861 1.790861,0 4,0 Z" id="矩形" fill="#1A66FF"></path>
        <polygon id="矩形" fill="#000000" fill-rule="nonzero" opacity="0.119999997" points="34 14 44 14 44 24"></polygon>
        <path d="M30,0 L44,14 L34,14 C31.790861,14 30,12.209139 30,10 L30,0 L30,0 Z" id="矩形" fill="#6699FF"></path>
        <path d="M20.9810914,16.898731 C21.0040287,16.8778736 21.0218551,16.8623315 21.040022,16.8472306 C21.0584133,16.8315987 21.077318,16.8165986 21.0966212,16.8020355 C21.1062691,16.7951715 21.1157949,16.7881738 21.1253993,16.7812908 C21.1882285,16.7357657 21.2553301,16.6950781 21.3261244,16.6595865 C21.4518018,16.5966711 21.5862035,16.5510148 21.7256551,16.5249663 L21.5879183,16.5577141 C21.6488311,16.5403104 21.7099409,16.5269348 21.7709631,16.5174292 C21.799416,16.5128035 21.8283478,16.5091704 21.8574401,16.506386 C21.8874817,16.5036204 21.9175308,16.5016391 21.9474912,16.5005667 C21.9613865,16.5000237 21.9760437,16.4997224 21.9907282,16.4996382 L22.0092718,16.4996382 C22.0240627,16.499723 22.0388259,16.5000281 22.0535573,16.5005513 C22.0827387,16.5016577 22.1126107,16.5036311 22.1425363,16.5065216 C22.170754,16.5090838 22.1988327,16.5125841 22.2267298,16.5168665 C22.2423194,16.519471 22.2583046,16.5221956 22.274291,16.5251882 C22.3681704,16.5424966 22.4596468,16.5688782 22.5476571,16.6034663 L22.4120817,16.5577141 C22.5329005,16.5922338 22.6460052,16.6406178 22.750162,16.7006458 C22.764004,16.7090404 22.7781089,16.7174885 22.7920739,16.7261662 C22.8150348,16.7399974 22.8369165,16.7544185 22.8583455,16.7693627 C22.8734647,16.7803286 22.8889423,16.7915463 22.9042083,16.8030606 C22.9233739,16.8171479 22.9419252,16.8318809 22.9600823,16.8470169 C22.9781449,16.8623315 22.9959713,16.8778736 23.0134388,16.8938466 L23.101269,16.9810914 C23.1221264,17.0040287 23.1376685,17.0218551 23.1527694,17.040022 C23.1684013,17.0584133 23.1834014,17.077318 23.1979645,17.0966212 C23.2048285,17.1062691 23.2118262,17.1157949 23.2187092,17.1253993 C23.2642343,17.1882285 23.3049219,17.2553301 23.3404135,17.3261244 C23.3816796,17.4087584 23.4156037,17.4950335 23.4413865,17.584064 L28,33.538 L32.5577141,17.5879183 C32.7853005,16.7913658 33.6155292,16.3301276 34.4120817,16.5577141 C35.1617782,16.7719131 35.6144488,17.5199405 35.4753698,18.2712935 L35.4422859,18.4120817 L29.4422859,39.4120817 C29.0421321,40.8126202 27.1119788,40.8609146 26.6063077,39.556965 L26.5577141,39.4120817 L21.9996138,23.4586138 L17.4422859,39.4120817 C17.0421321,40.8126202 15.1119788,40.8609146 14.6063077,39.556965 L14.5577141,39.4120817 L8.55771408,18.4120817 C8.33012764,17.6155292 8.79136579,16.7853005 9.58791831,16.5577141 C10.3376148,16.3435151 11.1171421,16.739486 11.3959973,17.4509029 L11.4422859,17.5879183 L16,33.538 L20.5525096,17.6057496 C20.5789506,17.5090338 20.6149631,17.4154333 20.6597728,17.3263421 C20.6950781,17.2553301 20.7357657,17.1882285 20.7810303,17.1251635 C20.7881738,17.1157949 20.7951715,17.1062691 20.8022826,17.0968241 C20.8165986,17.077318 20.8315987,17.0584133 20.8470169,17.0399177 C20.8623315,17.0218551 20.8778736,17.0040287 20.8938466,16.9865612 L20.9810914,16.898731 Z" id="形状结合" fill="#FFFFFF"></path>
      </g>
    </g>
  </g>
</svg>