<?xml version="1.0" encoding="UTF-8"?>
<svg width="64px" height="64px" viewBox="0 0 64 64" version="1.1"
  xmlns="http://www.w3.org/2000/svg"
  xmlns:xlink="http://www.w3.org/1999/xlink">
  <title></title>
  <g id="Symbol" stroke="none" stroke-width="1" fill="none" fill-rule="evenodd">
    <g id="FileImageFilled">
      <rect id="mask" x="0" y="0" width="64" height="64"></rect>
      <g transform="translate(10.000000, 4.000000)">
        <path d="M4,0 L30,0 L44,14 L44,52 C44,54.209139 42.209139,56 40,56 L4,56 C1.790861,56 0,54.209139 0,52 L0,4 C0,1.790861 1.790861,0 4,0 Z" id="矩形" fill="#ED7B2B"></path>
        <path d="M8.51124379,29.8032477 C8.47250003,29.86712 8.43858193,29.9337974 8.40977264,30.0027232 L4.7846847,38.6756965 C4.3711519,39.665068 5.09921502,40.7562145 6.17153084,40.7541624 L37.7947053,40.6935572 C39.4904065,40.6903076 39.8792163,38.31707 38.2731999,37.7728968 L11.7809728,28.7992676 C10.3571879,28.3275703 9.24256445,28.5976053 8.51124379,29.8032477 Z" id="路径" fill="#FFFFFF" fill-rule="nonzero" opacity="0.573018392"></path>
        <path d="M24.7091024,22.4544588 L24.6096843,22.5912757 L14.405292,38.4422093 C13.7616628,39.4419871 14.4816083,40.7574135 15.670643,40.7541627 L37.7959393,40.6935543 C38.9833964,40.6903018 39.6964257,39.3740672 39.0505125,38.3776431 L28.8594906,22.656368 C28.7102909,22.4407598 28.5685591,22.2820678 28.4093154,22.1423256 C27.3060914,21.1742055 25.6371633,21.3179938 24.7091024,22.4544588 Z" id="路径" fill="#FFFFFF"></path>
        <path d="M12,16 C9.790861,16 8,17.790861 8,20 C8,22.209139 9.790861,24 12,24 C14.209139,24 16,22.209139 16,20 C16,17.790861 14.209139,16 12,16 Z" id="路径" fill="#FFFFFF"></path>
        <polygon id="矩形" fill="#000000" fill-rule="nonzero" opacity="0.119999997" points="34 14 44 14 44 24"></polygon>
        <path d="M30,0 L44,14 L34,14 C31.790861,14 30,12.209139 30,10 L30,0 L30,0 Z" id="矩形" fill="#FAA264"></path>
      </g>
    </g>
  </g>
</svg>