<?xml version="1.0" encoding="UTF-8"?>
<svg width="64px" height="64px" viewBox="0 0 64 64" version="1.1"
  xmlns="http://www.w3.org/2000/svg"
  xmlns:xlink="http://www.w3.org/1999/xlink">
  <title></title>
  <g id="Symbol" stroke="none" stroke-width="1" fill="none" fill-rule="evenodd">
    <g id="FileExcelFilled">
      <rect id="mask" x="0" y="0" width="64" height="64"></rect>
      <g transform="translate(10.000000, 4.000000)">
        <path d="M4,0 L30,0 L44,14 L44,52 C44,54.209139 42.209139,56 40,56 L4,56 C1.790861,56 0,54.209139 0,52 L0,4 C0,1.790861 1.790861,0 4,0 Z" id="矩形" fill="#11A35F"></path>
        <polygon id="矩形" fill="#000000" fill-rule="nonzero" opacity="0.119999997" points="34 14 44 14 44 24"></polygon>
        <path d="M30,0 L44,14 L34,14 C31.790861,14 30,12.209139 30,10 L30,0 L30,0 Z" id="矩形" fill="#47CC8E"></path>
        <path d="M32.5624874,18.4375126 C33.1458375,19.0208626 33.1458375,19.96666 32.5624874,20.55001 L24.113,29 L32.5624874,37.44999 C33.1458375,38.03334 33.1458375,38.9791374 32.5624874,39.5624874 C31.9791374,40.1458375 31.03334,40.1458375 30.44999,39.5624874 L22,31.113 L13.55001,39.5624874 C12.96666,40.1458375 12.0208626,40.1458375 11.4375126,39.5624874 C10.8541625,38.9791374 10.8541625,38.03334 11.4375126,37.44999 L19.887,29 L11.4375126,20.55001 C10.8541625,19.96666 10.8541625,19.0208626 11.4375126,18.4375126 C12.0208626,17.8541625 12.96666,17.8541625 13.55001,18.4375126 L22,26.887 L30.44999,18.4375126 C31.03334,17.8541625 31.9791374,17.8541625 32.5624874,18.4375126 Z" id="路径" fill="#FFFFFF"></path>
      </g>
    </g>
  </g>
</svg>