<?xml version="1.0" encoding="UTF-8"?>
<svg width="16px" height="16px" viewBox="0 0 16 16" version="1.1"
  xmlns="http://www.w3.org/2000/svg"
  xmlns:xlink="http://www.w3.org/1999/xlink">
  <title></title>
  <g id="icon/icon_file/ic_move" stroke="none" stroke-width="1" fill="none" fill-rule="evenodd">
    <path d="M7.40126953,3 L13.4,3 C13.7313708,3 14,3.26862915 14,3.6 C14,3.93137085 13.7313708,4.2 13.4,4.2 L7.40126953,4.2 C7.06989868,4.2 6.80126953,3.93137085 6.80126953,3.6 C6.80126953,3.26862915 7.06989868,3 7.40126953,3 Z" id="矩形" fill="#868A9C" transform="translate(10.400635, 3.600000) scale(-1, 1) translate(-10.400635, -3.600000) "></path>
    <path d="M7.40126953,7.6 L13.4,7.6 C13.7313708,7.6 14,7.86862915 14,8.2 C14,8.53137085 13.7313708,8.8 13.4,8.8 L7.40126953,8.8 C7.06989868,8.8 6.80126953,8.53137085 6.80126953,8.2 C6.80126953,7.86862915 7.06989868,7.6 7.40126953,7.6 Z" id="矩形备份" fill="#868A9C" transform="translate(10.400635, 8.200000) scale(-1, 1) translate(-10.400635, -8.200000) "></path>
    <path d="M2.6,12 L13.4,12 C13.7313708,12 14,12.2686292 14,12.6 C14,12.9313708 13.7313708,13.2 13.4,13.2 L2.6,13.2 C2.26862915,13.2 2,12.9313708 2,12.6 C2,12.2686292 2.26862915,12 2.6,12 Z" id="矩形备份-2" fill="#868A9C" transform="translate(8.000000, 12.600000) scale(-1, 1) translate(-8.000000, -12.600000) "></path>
    <path d="M2.57368451,3.040314 C2.28800108,3.040314 2.05186337,3.24412775 2.00749266,3.50946922 L2,3.6 L2,10.5842285 C2,10.7880588 2.11204158,10.9753304 2.29658237,11.0750114 C2.37755613,11.120138 2.47323366,11.1439145 2.57058977,11.1439145 C2.64228766,11.1439145 2.71532667,11.1303937 2.78398805,11.1050761 L2.88298203,11.0584676 L5.0244232,9.73060938 C5.29220486,9.5643076 5.37128539,9.22141199 5.20318966,8.96044772 C5.0530792,8.72740512 4.75392084,8.63938097 4.50119983,8.73892516 L4.408988,8.7851296 L3.14736902,9.56689162 L3.14736902,3.6 C3.14736902,3.29193592 2.89111054,3.040314 2.57368451,3.040314 Z" id="路径" fill="#868A9C" transform="translate(3.645688, 7.092114) scale(-1, 1) translate(-3.645688, -7.092114) "></path>
  </g>
</svg>