<svg viewBox="0 0 64 64" xmlns="http://www.w3.org/2000/svg"><g fill-rule="evenodd" fill="none"><path d="M0 0h64v64H0z"/><path d="M25 7a4 4 0 0 1 4 4v14a4 4 0 0 1-4 4H11a4 4 0 0 1-4-4V11a4 4 0 0 1 4-4h14Zm0 4H11v14h14V11Zm0 24a4 4 0 0 1 4 4v14a4 4 0 0 1-4 4H11a4 4 0 0 1-4-4V39a4 4 0 0 1 4-4h14Zm0 4H11v14h14V39Zm28-4a4 4 0 0 1 4 4v14a4 4 0 0 1-4 4H39a4 4 0 0 1-4-4V39a4 4 0 0 1 4-4h14Zm0 4H39v14h14V39Zm0-32a4 4 0 0 1 4 4v14a4 4 0 0 1-4 4H39a4 4 0 0 1-4-4V11a4 4 0 0 1 4-4h14Zm0 4H39v14h14V11Z" fill="#000" data-follow-fill="#000"/></g></svg>