<?xml version="1.0" encoding="UTF-8"?>
<svg width="24px" height="24px" viewBox="0 0 24 24" version="1.1" xmlns="http://www.w3.org/2000/svg" xmlns:xlink="http://www.w3.org/1999/xlink">
    <title>home/icon_fix-float_phone_black@svg</title>
    <g id="导航" stroke="none" stroke-width="1" fill="none" fill-rule="evenodd">
        <g id="导航-产品-hover" transform="translate(-1402.000000, -539.000000)">
            <g id="编组-19" transform="translate(0.000000, 62.000000)">
                <g id="导航footer" transform="translate(370.000000, 477.000000)">
                    <g id="编组-17备份" transform="translate(160.000000, 0.000000)">
                        <g id="home/icon_fix-float_phone_black" transform="translate(872.000000, 0.000000)">
                            <polygon id="路径" points="0 0 24 0 24 24 0 24"></polygon>
                            <path d="M5,4.75 C4.30964406,4.75 3.75,5.30964406 3.74861893,5.95450607 C4.21618452,13.6484654 10.3515346,19.7838155 18,20.25 C18.6443322,20.25 19.1747998,19.7624878 19.2426652,19.1362013 L19.25,19 L19.2492,15.5076 L15.3132,13.9332 L13.7877457,16.4781617 L13.1682641,16.172645 C10.9775406,15.0922212 9.18129155,13.3576555 8.0247585,11.2141894 L7.827355,10.8317359 L7.52183827,10.2122543 L10.0656,8.6856 L8.4912,4.7496 L5,4.75 Z M5,3.25 L9.50777472,3.25 L11.9335741,9.31449835 L9.4992,10.7736 L9.55100871,10.8659981 C10.4265595,12.3412553 11.6587447,13.5734405 13.1340019,14.4489913 L13.2252,14.4996 L14.6855017,12.0664259 L20.75,14.4922253 L20.75,19 C20.75,20.5187831 19.5187831,21.75 17.9545061,21.7486201 C9.50376381,21.2350633 2.76493671,14.4962362 2.25,6 C2.25,4.54449957 3.38075306,3.35310066 4.81171812,3.25634433 L5,3.25 Z" id="路径" fill="#030A1A" fill-rule="nonzero"></path>
                        </g>
                    </g>
                </g>
            </g>
        </g>
    </g>
</svg>